GIL04_xslow1_RRA_states
nRows=4
nColumns=47

# SIMM Motion File Header:
name GIL04_xslow1_RRA_states
datacolumns 47
datarows 4
otherdata 1
range 0.73150000000000026000 0.73300000000000032000
endheader
time	pelvis_tx	pelvis_ty	pelvis_tz	pelvis_tilt	pelvis_list	pelvis_rotation	hip_flexion_r	hip_adduction_r	hip_rotation_r	knee_angle_r	ankle_angle_r	subtalar_angle_r	mtp_angle_r	hip_flexion_l	hip_adduction_l	hip_rotation_l	knee_angle_l	ankle_angle_l	subtalar_angle_l	mtp_angle_l	lumbar_extension	lumbar_bending	lumbar_rotation	pelvis_tx_u	pelvis_ty_u	pelvis_tz_u	pelvis_tilt_u	pelvis_list_u	pelvis_rotation_u	hip_flexion_r_u	hip_adduction_r_u	hip_rotation_r_u	knee_angle_r_u	ankle_angle_r_u	subtalar_angle_r_u	mtp_angle_r_u	hip_flexion_l_u	hip_adduction_l_u	hip_rotation_l_u	knee_angle_l_u	ankle_angle_l_u	subtalar_angle_l_u	mtp_angle_l_u	lumbar_extension_u	lumbar_bending_u	lumbar_rotation_u
      0.73150000000000026000	      0.96112468871963730000	      0.74188569973591212000	     -0.19371713113286487000	      6.01050807493402140000	     -0.26435083133769571000	      1.95977140720702050000	     -9.33595315523311520000	      6.88263506465621070000	      5.33060892961975700000	    -11.18862650997683000000	     13.35205986287854400000	      0.00000000000007406443	     -0.00000000000021748303	     20.20923402383675700000	     -0.83710927700642546000	     -7.99948980031333790000	    -15.59447958080346700000	      4.85179253486099960000	     -0.00000000000000378591	     -0.00000000000000267424	    -13.55721456724597500000	     -1.20773400954557130000	      5.53334524376655510000	      0.45940139596408613000	     -0.10586159607823487000	     -0.03509351111769787300	     19.01688709615530500000	     -7.57270389086712200000	      5.84792291883274110000	    -43.53353537819364000000	     13.15567882013949800000	      7.66147552172802900000	    -34.28441497965621900000	     57.59787351108632700000	      0.00000000000018122421	     -0.00000000000049189982	     -1.54897063098265740000	     19.79688926232204000000	     -1.13576894748056880000	    212.22635019008922000000	    -18.29381981977983800000	      0.00000000000002184776	     -0.00000000000000226327	      0.04037427031639458800	      7.87400522488862190000	    -15.10643129170619000000
      0.73200000000000032000	      0.96135449971944209000	      0.74183268347759035000	     -0.19373465492520875000	      6.01996620106805040000	     -0.26813900605126395000	      1.96268541534837060000	     -9.35766689036162620000	      6.88920973284747880000	      5.33445578298258830000	    -11.20578410621982900000	     13.38086592611244700000	      0.00000000000007414587	     -0.00000000000021772957	     20.20846883762336100000	     -0.82722067376008568000	     -7.99996337474228000000	    -15.48847615672639000000	      4.84260141740040860000	     -0.00000000000000377403	     -0.00000000000000267586	    -13.55712344160440700000	     -1.20381418283112020000	      5.52580194041877530000	      0.45984265521013451000	     -0.10620312668682741000	     -0.03500193134383407200	     18.81565705456326800000	     -7.58006057710293300000	      5.80802758276613940000	    -43.32159785133965400000	     13.14293687803925800000	      7.72664725095186800000	    -34.34576172362252300000	     57.62633263563299100000	      0.00000000000014181612	     -0.00000000000043799211	     -1.51144428673976590000	     19.75736240931570700000	     -0.75819711339065465000	    211.78590336772285000000	    -18.47035054028941300000	      0.00000000000002534252	     -0.00000000000000265941	      0.32404998865228096000	      7.80547124961167870000	    -15.06680742369185400000
      0.73250000000000026000	      0.96158453142036537000	      0.74177949693691936000	     -0.19375213334428615000	      6.02932377997256540000	     -0.27193095688154645000	      1.96557935315578860000	     -9.37927495900410340000	      6.89577794155727910000	      5.33833627394067720000	    -11.22297204055523400000	     13.40968593987941500000	      0.00000000000007421716	     -0.00000000000021792570	     20.20772289991146300000	     -0.81735207512839936000	     -8.00024768347847370000	    -15.38269511729541100000	      4.83332247573606020000	     -0.00000000000000376066	     -0.00000000000000267766	    -13.55689060671432100000	     -1.19992836612953700000	      5.51827840613467480000	      0.46028418702632945000	     -0.10654269069907371000	     -0.03491203215305140700	     18.61471517663191800000	     -7.58780705096989380000	      5.76764248782560520000	    -43.11089611183686500000	     13.12983508965680800000	      7.79600142030627640000	    -34.40572157237537000000	     57.65325849658948700000	      0.00000000000013434736	     -0.00000000000028503528	     -1.47199584049940800000	     19.71687244030398000000	     -0.37874211093857113000	    211.33681795613884000000	    -18.64513260147912600000	      0.00000000000002806716	     -0.00000000000000436458	      0.60718860401527941000	      7.73797035530464590000	    -15.02736484897274100000
      0.73300000000000032000	      0.96181478394413944000	      0.74172614112786772000	     -0.19376956724254008000	      6.03858096930976450000	     -0.27572687703746490000	      1.96845297642315620000	     -9.40077799946653590000	      6.90233950700680050000	      5.34225247110226230000	    -11.24018959266383700000	     13.43851892609308900000	      0.00000000000007427447	     -0.00000000000021804769	     20.20699715680752500000	     -0.80750396118644718000	     -8.00034182412162840000	    -15.27714077570260900000	      4.82395657418005360000	     -0.00000000000000374651	     -0.00000000000000267953	    -13.55651634998885400000	     -1.19607603857784790000	      5.51077454051508920000	      0.46072594433424297000	     -0.10688020842929145000	     -0.03482384414058657700	     18.41409194335447800000	     -7.59593712093318980000	      5.72676896030017970000	    -42.90147260619458800000	     13.11636773428153000000	      7.86947578687936920000	    -34.46427058338205300000	     57.67863371094812700000	      0.00000000000008988633	     -0.00000000000019898248	     -1.43065731002888200000	     19.67542333289240000000	      0.00246880363115476250	    210.87911153225843000000	    -18.81817819211367000000	      0.00000000000002891767	     -0.00000000000000301384	      0.88974493328579185000	      7.67151292533599790000	    -14.98813264916677400000
